# xmcd CD database file
#
# Track frame offsets:
#	150
#	15609
#	33596
#	49310
#	67243
#	84128
#	94887
#	107799
#	123649
#	141597
#	158619
#	179993
#	195893
#	213026
#	229232
#	244186
#	258575
#	276372
#
# Disc length: 3899 seconds
#
# Revision: 3
# Processed by: cddbd v1.5.2PL0 Copyright (c) Steve Scherf et al.
# Submitted via: CDex 1.51
#
DISCID=0d0f3912
DTITLE=Various Artist - RC88
DYEAR=2005
DGENRE=Top 40
TTITLE0=Montgomery Gentry - Gone
TTITLE1=Kenny Chesney - Anything But Mine (Edit)
TTITLE2=Lee Ann Womack - I May Hate Myself In The Morning (Radio Edit)
TTITLE3=Brooks and Dunn - It's Getting Better All The Time (Single Version)
TTITLE4=Rachel Proctor - Where I Belong
TTITLE5=Joe Nichols - What's A Guy Gotta Do
TTITLE6=Shelly Fairchild - You Don't Lie Here Anymore
TTITLE7=Toby Keith (w/ Krystal) - Mockingbird
TTITLE8=Sugarland - Baby Girl
TTITLE9=Billy Dean - Let Them Be Little
TTITLE10=Chely Wright - The Bumpter Of My S.U.V.
TTITLE11=Jamie O'Neal - Trying To Find Atlantis
TTITLE12=Jimmy Wayne - Paper Angels
TTITLE13=Miranda Lambert - Me And Charlie (Radio Edit)
TTITLE14=Craig Morgan - That's What I Love About Sunday
TTITLE15=Catherine Britt - The Upside Of Being Down
TTITLE16=Pat Green - Don't Break My Heart Again (Radio Edit)
TTITLE17=Andy Griggs - If Heaven
EXTD=YEAR: 2005
EXTT0=
EXTT1=
EXTT2=
EXTT3=
EXTT4=
EXTT5=
EXTT6=
EXTT7=
EXTT8=
EXTT9=
EXTT10=
EXTT11=
EXTT12=
EXTT13=
EXTT14=
EXTT15=
EXTT16=
EXTT17=
PLAYORDER=
